<svg width="26" height="24" viewBox="0 0 26 24" fill="none" xmlns="http://www.w3.org/2000/svg">
  <symbol id = "idInstagram" viewBox="0 0 26 24">
    <path d="M13.0029 5.8467C9.59691 5.8467 6.84962 8.594 6.84962 12C6.84962 15.406 9.59691 18.1533 13.0029 18.1533C16.4089 18.1533 19.1562 15.406 19.1562 12C19.1562 8.594 16.4089 5.8467 13.0029 5.8467ZM13.0029 16.0004C10.8019 16.0004 9.00247 14.2064 9.00247 12C9.00247 9.7936 10.7965 7.99955 13.0029 7.99955C15.2093 7.99955 17.0034 9.7936 17.0034 12C17.0034 14.2064 15.204 16.0004 13.0029 16.0004ZM20.8431 5.595C20.8431 6.39295 20.2005 7.03024 19.4079 7.03024C18.61 7.03024 17.9727 6.38759 17.9727 5.595C17.9727 4.80241 18.6153 4.15977 19.4079 4.15977C20.2005 4.15977 20.8431 4.80241 20.8431 5.595ZM24.9186 7.05166C24.8275 5.12909 24.3884 3.42608 22.9799 2.02298C21.5768 0.619882 19.8738 0.180743 17.9513 0.0843468C15.9698 -0.0281156 10.0307 -0.0281156 8.04922 0.0843468C6.132 0.175388 4.429 0.614526 3.02054 2.01763C1.61209 3.42073 1.1783 5.12373 1.08191 7.0463C0.969443 9.02778 0.969443 14.9669 1.08191 16.9483C1.17295 18.8709 1.61209 20.5739 3.02054 21.977C4.429 23.3801 6.12665 23.8193 8.04922 23.9157C10.0307 24.0281 15.9698 24.0281 17.9513 23.9157C19.8738 23.8246 21.5768 23.3855 22.9799 21.977C24.383 20.5739 24.8222 18.8709 24.9186 16.9483C25.031 14.9669 25.031 9.03314 24.9186 7.05166ZM22.3587 19.0744C21.941 20.1241 21.1323 20.9327 20.0773 21.3558C18.4975 21.9824 14.7488 21.8378 13.0029 21.8378C11.2571 21.8378 7.50297 21.977 5.9285 21.3558C4.87885 20.9381 4.07019 20.1294 3.64712 19.0744C3.02054 17.4946 3.16514 13.7458 3.16514 12C3.16514 10.2542 3.0259 6.50006 3.64712 4.92558C4.06484 3.87593 4.87349 3.06728 5.9285 2.6442C7.50833 2.01763 11.2571 2.16222 13.0029 2.16222C14.7488 2.16222 18.5029 2.02298 20.0773 2.6442C21.127 3.06192 21.9356 3.87058 22.3587 4.92558C22.9853 6.50541 22.8407 10.2542 22.8407 12C22.8407 13.7458 22.9853 17.4999 22.3587 19.0744Z"/>
  </symbol>
</svg>
