<svg width="24" height="24" viewBox="0 0 24 24" fill="none" xmlns="http://www.w3.org/2000/svg">
  <symbol id = "idLinkedin" viewBox="0 0 24 24">
    <path d="M5.37226 24H0.396437V7.97643H5.37226V24ZM2.88167 5.79066C1.29056 5.79066 0 4.47278 0 2.88167C1.13885e-08 2.1174 0.303604 1.38444 0.844022 0.844022C1.38444 0.303604 2.1174 0 2.88167 0C3.64594 0 4.3789 0.303604 4.91932 0.844022C5.45974 1.38444 5.76334 2.1174 5.76334 2.88167C5.76334 4.47278 4.47224 5.79066 2.88167 5.79066ZM23.9952 24H19.0301V16.1998C19.0301 14.3409 18.9926 11.9569 16.443 11.9569C13.856 11.9569 13.4596 13.9766 13.4596 16.0659V24H8.48912V7.97643H13.2614V10.1622H13.331C13.9953 8.90323 15.618 7.57463 18.039 7.57463C23.0748 7.57463 24.0005 10.8908 24.0005 15.198V24H23.9952Z"/>
  </symbol>
</svg>
