<svg width="270" height="180" viewBox="0 0 270 180" fill="none" xmlns="http://www.w3.org/2000/svg">
<rect width="270" height="180" rx="8" fill="#1A1A1A"/>
<path d="M45.2957 70.1953C41.2257 71.9298 36.6978 76.7762 35.2733 82.8979C33.4927 90.6011 40.9713 93.866 41.5818 92.7947C42.2941 91.5193 40.2591 91.1112 39.8012 87.1321C39.2416 81.9796 41.6327 76.164 44.6852 73.6643C45.2448 73.2051 45.2448 73.8683 45.2448 75.0417C45.2448 77.2353 45.1431 96.6718 45.1431 100.753C45.1431 106.263 44.9396 107.997 44.5326 109.681C44.1256 111.415 43.4642 112.588 43.973 113.047C44.5326 113.558 46.9237 112.333 48.2973 110.395C49.9762 108.048 50.5358 105.293 50.6376 102.232C50.7393 98.5593 50.7393 92.7437 50.7393 89.4788C50.7393 86.4179 50.7902 77.5414 50.6885 72.1848C50.6376 70.8585 47.0255 69.4811 45.2957 70.1953ZM190.646 95.9576C190.493 98.8144 189.882 101.059 189.119 102.641C187.593 105.701 184.439 106.62 183.116 102.232C182.404 99.8347 182.353 95.8556 182.862 92.4886C183.37 89.0707 184.897 86.5199 187.339 86.775C189.781 87.0301 190.9 90.142 190.646 95.9576ZM149.691 113.711C149.64 118.455 148.928 122.638 147.3 123.812C145.011 125.546 142.009 124.22 142.62 120.751C143.179 117.69 145.825 114.527 149.691 110.701C149.691 110.752 149.691 111.619 149.691 113.711ZM149.03 95.9066C148.877 98.5083 148.216 101.11 147.504 102.59C145.977 105.65 142.823 106.62 141.5 102.181C140.585 99.1715 140.839 95.2944 141.246 92.8457C141.806 89.6828 143.23 86.724 145.723 86.724C148.216 86.775 149.386 89.4788 149.03 95.9066ZM125.322 95.9066C125.169 98.6614 124.661 100.957 123.796 102.641C122.219 105.65 119.166 106.62 117.793 102.232C116.826 99.0695 117.131 94.7843 117.538 92.4376C118.149 88.9686 119.675 86.5199 122.015 86.775C124.457 87.0301 125.627 90.142 125.322 95.9066ZM234.093 99.1205C233.482 99.1205 233.228 99.7327 233.024 100.753C232.261 104.324 231.447 105.14 230.379 105.14C229.209 105.14 228.14 103.355 227.886 99.7837C227.683 96.9779 227.683 91.8254 227.988 86.724C228.039 85.6527 227.733 84.6324 224.935 83.6121C223.714 83.153 221.985 82.5408 221.069 84.6324C218.576 90.6521 217.609 95.3965 217.406 97.335C217.406 97.437 217.253 97.437 217.253 97.233C217.101 95.7025 216.795 92.8457 216.744 86.928C216.744 85.7547 216.49 84.7854 215.218 83.9692C214.404 83.4591 211.911 82.5408 210.996 83.6121C210.232 84.5304 209.317 86.928 208.35 89.7849C207.587 92.1315 207.078 93.713 207.078 93.713C207.078 93.713 207.078 87.4382 207.078 85.0405C207.078 84.1222 206.468 83.8162 206.264 83.7651C205.45 83.5101 203.771 83.102 203.11 83.102C202.245 83.102 202.042 83.5611 202.042 84.2753C202.042 84.3773 201.889 92.5396 201.889 98.2533C201.889 98.5083 201.889 98.7634 201.889 99.0695C201.431 101.722 199.854 105.293 198.175 105.293C196.496 105.293 195.682 103.814 195.682 96.9779C195.682 92.9988 195.784 91.2643 195.835 88.4075C195.886 86.775 195.937 85.4996 195.937 85.1935C195.937 84.3263 194.41 83.8672 193.698 83.7141C192.986 83.5611 192.375 83.4591 191.867 83.5101C191.205 83.5611 190.696 84.0202 190.696 84.6324C190.696 84.9895 190.696 85.6017 190.696 85.6017C189.832 84.2243 188.407 83.255 187.44 82.9489C184.897 82.1837 182.251 82.8469 180.216 85.6527C178.639 87.8973 177.672 90.397 177.265 94.0701C177.011 96.7228 177.062 99.4266 177.571 101.722C176.96 104.273 175.892 105.344 174.671 105.344C172.941 105.344 171.669 102.487 171.822 97.5391C171.924 94.2741 172.585 91.9785 173.297 88.6625C173.602 87.2341 173.348 86.5199 172.738 85.8057C172.178 85.1425 170.957 84.8364 169.227 85.2446C168.006 85.5506 166.226 85.8567 164.598 86.1118C164.598 86.1118 164.699 85.7037 164.75 85.0405C165.157 81.4185 161.24 81.7246 160.019 82.8979C159.256 83.5611 158.747 84.3773 158.594 85.8567C158.289 88.1524 160.171 89.2747 160.171 89.2747C159.561 92.1315 158.035 95.8046 156.458 98.5083C155.644 99.9367 154.982 101.008 154.168 102.13C154.168 101.722 154.168 101.263 154.168 100.855C154.168 94.8863 154.219 90.193 154.27 88.5095C154.321 86.877 154.372 85.6017 154.372 85.3466C154.372 84.6834 153.965 84.4793 153.202 84.1222C152.489 83.8672 151.675 83.6631 150.81 83.6121C149.742 83.5101 149.081 84.1222 149.081 84.7854C149.081 84.9385 149.081 85.7037 149.081 85.7037C148.216 84.3263 146.791 83.357 145.825 83.0509C143.281 82.2857 140.635 82.9489 138.6 85.7547C137.023 87.9993 135.955 91.1112 135.65 94.1211C135.395 96.9269 135.446 99.3246 135.802 101.314C135.395 103.304 134.225 105.395 132.902 105.395C131.224 105.395 130.257 103.916 130.257 97.0799C130.257 93.1008 130.359 91.3663 130.41 88.5095C130.46 86.877 130.511 85.6017 130.511 85.2956C130.511 84.4283 128.985 83.9692 128.273 83.8162C127.51 83.6631 126.899 83.5611 126.39 83.6121C125.729 83.6631 125.271 84.2243 125.271 84.6834V85.7037C124.406 84.3263 122.982 83.357 122.015 83.0509C119.471 82.2857 116.826 82.9999 114.791 85.7547C113.468 87.5912 112.4 89.6318 111.84 94.0701C111.688 95.3454 111.637 96.5698 111.637 97.6921C111.128 100.906 108.788 104.63 106.905 104.63C105.786 104.63 104.718 102.487 104.718 97.8451C104.718 91.7234 105.074 82.9999 105.176 82.1327C105.176 82.1327 107.567 82.0817 108.025 82.0817C109.195 82.0817 110.314 82.0817 111.891 82.0306C112.705 81.9796 113.468 79.1228 112.654 78.7657C112.298 78.6127 109.653 78.4596 108.584 78.4596C107.719 78.4596 105.277 78.2556 105.277 78.2556C105.277 78.2556 105.481 72.4399 105.532 71.8277C105.583 71.3176 104.921 71.0625 104.565 70.9095C103.649 70.5014 102.835 70.3483 101.869 70.1443C100.546 69.8892 99.9355 70.1443 99.7828 71.2666C99.5793 73.0011 99.5285 78.0515 99.5285 78.0515C98.5618 78.0515 95.1532 77.8475 94.1866 77.8475C93.2708 77.8475 92.3042 81.8266 93.5252 81.8266C95.0006 81.8776 97.5443 81.9286 99.2232 81.9796C99.2232 81.9796 99.1723 90.8562 99.1723 93.6109C99.1723 93.917 99.1723 94.1721 99.1723 94.4782C98.2566 99.3246 95.0006 101.926 95.0006 101.926C95.7128 98.7124 94.2883 96.3147 91.6937 94.2741C90.7271 93.5089 88.8447 92.0805 86.7588 90.5501C86.7588 90.5501 87.9798 89.3257 89.0482 86.928C89.8113 85.1935 89.8622 83.255 87.9798 82.8469C84.8765 82.1327 82.3327 84.4283 81.5696 86.877C80.9591 88.7646 81.3152 90.142 82.4345 91.6214C82.5362 91.7234 82.5871 91.8254 82.6888 91.9275C81.9766 93.3049 81.01 95.0904 80.196 96.5188C77.9575 100.447 76.2277 103.559 74.9558 103.559C73.9383 103.559 73.9383 100.396 73.9383 97.488C73.9383 94.9373 74.1418 91.1112 74.2945 87.1831C74.3453 85.8567 73.684 85.1425 72.6156 84.4793C71.9542 84.0712 70.5297 83.255 69.7157 83.255C68.4947 83.255 64.9335 83.408 61.5757 93.1518C61.1687 94.3762 60.3038 96.6208 60.3038 96.6208L60.3547 84.9385C60.3547 84.6834 60.2021 84.3773 59.8968 84.2243C59.3372 83.9182 57.811 83.306 56.4882 83.306C55.8268 83.306 55.5216 83.6121 55.5216 84.1733L55.4198 102.436C55.4198 103.814 55.4707 105.446 55.5725 106.161C55.7251 106.875 55.9286 107.436 56.183 107.793C56.4373 108.15 56.7935 108.405 57.3022 108.507C57.811 108.609 60.4565 108.966 60.6091 107.946C60.7617 106.722 60.7617 105.395 62.1862 100.498C64.3738 92.8457 67.172 89.0706 68.5456 87.7443C68.8 87.4892 69.0543 87.4892 69.0543 87.8973C69.0035 89.5808 68.8 93.764 68.6473 97.335C68.2912 106.875 70.021 108.66 72.5138 108.66C74.3962 108.66 77.0926 106.773 79.9416 101.977C81.7222 99.0185 83.452 96.0596 84.7238 93.968C85.5887 94.7843 86.5553 95.6515 87.522 96.5698C89.7605 98.7124 90.5236 100.753 90.0148 102.692C89.6587 104.171 88.2342 105.701 85.6905 104.222C84.9782 103.814 84.6221 103.457 83.9098 102.947C83.5028 102.692 82.8923 102.589 82.5362 102.896C81.5696 103.61 81.0608 104.528 80.7556 105.65C80.4503 106.722 81.5696 107.334 82.6888 107.844C83.6555 108.303 85.7413 108.66 87.115 108.711C92.3042 108.864 96.5268 106.212 99.4267 99.2225C99.9355 105.242 102.174 108.66 105.99 108.66C108.584 108.66 111.128 105.344 112.247 102.028C112.552 103.355 113.061 104.528 113.672 105.497C116.622 110.191 122.371 109.17 125.271 105.191C126.187 103.967 126.289 103.508 126.289 103.508C126.696 107.283 129.748 108.609 131.478 108.609C133.411 108.609 135.446 107.691 136.82 104.528C136.972 104.885 137.176 105.191 137.379 105.497C140.33 110.191 146.079 109.17 148.979 105.191C149.132 104.987 149.233 104.834 149.335 104.681L149.437 107.181C149.437 107.181 147.809 108.711 146.791 109.629C142.314 113.711 138.957 116.823 138.702 120.445C138.397 125.036 142.111 126.77 144.96 126.974C147.961 127.23 150.505 125.546 152.082 123.25C153.456 121.21 154.372 116.823 154.321 112.435C154.27 110.701 154.27 108.456 154.219 106.11C155.796 104.273 157.526 101.977 159.154 99.2736C160.935 96.3147 162.817 92.3866 163.784 89.3257C163.784 89.3257 165.412 89.3257 167.192 89.2237C167.752 89.1727 167.904 89.3257 167.803 89.7338C167.701 90.244 165.564 98.3553 167.497 103.763C168.82 107.436 171.771 108.66 173.501 108.66C175.536 108.66 177.52 107.13 178.537 104.783C178.639 105.038 178.792 105.293 178.944 105.497C181.895 110.191 187.644 109.17 190.544 105.191C191.205 104.273 191.561 103.508 191.561 103.508C192.172 107.436 195.224 108.609 196.954 108.609C198.786 108.609 200.464 107.844 201.889 104.579C201.94 106.058 202.042 107.232 202.194 107.589C202.296 107.793 202.805 108.099 203.161 108.252C204.84 108.864 206.519 108.558 207.129 108.456C207.587 108.354 207.892 107.997 207.943 107.13C208.045 104.783 207.994 100.804 208.706 97.8451C209.927 92.8967 210.996 90.9582 211.555 90.0399C211.86 89.5298 212.166 89.4277 212.217 89.9889C212.217 91.1112 212.318 94.4782 212.776 98.9675C213.132 102.283 213.59 104.222 213.946 104.834C214.964 106.62 216.185 106.671 217.202 106.671C217.864 106.671 219.186 106.518 219.034 105.344C218.983 104.783 219.085 101.416 220.255 96.5188C221.018 93.3559 222.29 90.448 222.799 89.4278C222.951 89.0196 223.053 89.3257 223.053 89.4278C222.951 91.6214 222.748 98.7634 223.613 102.692C224.834 107.997 228.293 108.609 229.514 108.609C232.109 108.609 234.245 106.62 234.958 101.416C235.11 100.09 234.856 99.1205 234.093 99.1205Z" fill="white"/>
</svg>
