<svg width="270" height="180" viewBox="0 0 270 180" fill="none" xmlns="http://www.w3.org/2000/svg">
<rect width="270" height="180" rx="8" fill="#1A1A1A"/>
<path d="M113.744 83.1367H120.074V103.104H113.744V83.1367Z" fill="white"/>
<path d="M121.395 83.1367H127.492V85.8666H127.609C129.084 83.7216 130.987 82.5518 133.745 82.5518C138.094 82.5518 140.657 85.6716 140.657 90.1174V103.104H134.327V91.4044C134.327 89.2984 133.279 87.8553 131.22 87.8553C129.123 87.8553 127.725 89.6104 127.725 92.0672V103.104H121.395V83.1367Z" fill="white"/>
<path d="M120.705 77.7948C120.705 75.6887 119.005 73.9817 116.908 73.9817C114.811 73.9817 113.111 75.6887 113.111 77.7948C113.111 79.9006 114.811 81.6077 116.908 81.6077C119.005 81.6077 120.705 79.9006 120.705 77.7948Z" fill="white"/>
<path d="M185.177 82.8482C184.996 82.8319 184.789 82.8246 184.547 82.8246C182.139 82.8246 180.508 83.8775 179.11 86.2564H178.993V83.1366H172.935V103.104H179.265V94.134C179.265 89.978 181.557 88.0522 185.177 88.3882V82.8482Z" fill="white"/>
<path d="M216.24 90.507C213.716 90.0392 211.464 89.8442 211.464 88.4404C211.464 87.1923 212.668 86.6074 214.221 86.6074C215.968 86.6074 217.172 87.1533 217.405 88.9473H223.23C222.92 85.0085 219.891 82.5515 214.26 82.5515C209.561 82.5515 205.677 84.7355 205.677 88.9473C205.677 93.6268 209.367 94.5629 212.823 95.148C215.464 95.616 217.871 95.811 217.871 97.6048C217.871 98.8918 216.667 99.5938 214.765 99.5938C212.856 99.5938 211.593 98.7826 211.206 97.137H205.174C205.618 101.242 209.206 103.728 214.803 103.728C220.007 103.728 223.852 101.466 223.852 97.098C223.852 91.989 219.735 91.0921 216.24 90.507Z" fill="white"/>
<path d="M194.996 87.0751C197.054 87.0751 198.53 88.5961 198.763 90.9752H190.919C191.346 88.5961 192.589 87.0751 194.996 87.0751ZM195.346 99.1254C192.744 99.1254 191.268 97.4487 190.88 94.7578H205.171C205.21 90.7021 204.045 87.2311 201.676 85.0474C199.967 83.4875 197.715 82.5514 194.879 82.5514C188.821 82.5514 184.666 87.1141 184.666 93.081C184.666 99.1254 188.705 103.688 195.268 103.688C197.792 103.688 199.812 103.025 201.481 101.856C203.229 100.647 204.394 98.9307 204.821 97.1369H198.647C198.103 98.3847 197.016 99.1254 195.346 99.1254Z" fill="white"/>
<path d="M235 98.3953C234.707 98.4069 234.313 98.424 233.951 98.424C232.592 98.424 231.738 98.0339 231.738 96.474V87.1144H235V83.1366H231.738V76.8189H225.563V83.1366H223.62V87.1144H225.563V97.8389C225.563 102.129 228.204 103.338 231.893 103.338C233.301 103.338 234.365 103.232 235 103.107V98.3953Z" fill="white"/>
<path d="M151.961 98.4044C151.709 98.4142 151.417 98.424 151.145 98.424C149.786 98.424 148.931 98.0339 148.931 96.474V87.1144H151.961V83.1366H148.931V76.8189H142.757V83.1366H140.698V87.1144H142.757V97.8389C142.757 102.129 145.397 103.338 149.087 103.338C150.335 103.338 151.312 103.254 151.961 103.149V98.4044Z" fill="white"/>
<path d="M165.749 90.9752C165.516 88.5962 164.04 87.0751 161.982 87.0751C159.574 87.0751 158.332 88.5962 157.904 90.9752H165.749ZM151.652 93.081C151.652 87.1143 155.807 82.5516 161.865 82.5516C164.7 82.5516 166.953 83.4875 168.661 85.0474C171.03 87.2313 172.195 90.7021 172.156 94.7579H157.866C158.254 97.4487 159.729 99.1256 162.332 99.1256C164.001 99.1256 165.089 98.3847 165.632 97.1369H171.807C171.38 98.9307 170.215 100.647 168.467 101.856C166.797 103.025 164.778 103.688 162.254 103.688C155.691 103.688 151.652 99.1256 151.652 93.081Z" fill="white"/>
<path d="M102.751 88.3233C105.236 88.3233 106.634 86.8413 106.634 84.6182C106.634 82.3955 105.197 81.0306 102.751 81.0306H97.896V88.3233H102.751ZM91.4875 75.2199H102.48C105.858 75.2199 108.344 76.1557 110.052 77.7937C111.839 79.4705 112.849 81.8496 112.849 84.6574C112.849 90.0001 109.159 93.7831 103.451 93.7831H97.896V103.104H91.4875V75.2199Z" fill="white"/>
<path d="M82.7981 90.0001C82.7981 103.255 72.0981 114 58.8992 114C45.7002 114 35.0002 103.255 35.0002 90.0001C35.0002 76.7451 45.7002 66.0001 58.8992 66.0001C72.0981 66.0001 82.7981 76.7451 82.7981 90.0001Z" fill="black"/>
<path d="M58.8989 65.9999C45.7 65.9999 35 76.7451 35 89.9998C35 100.167 41.2993 108.859 50.1895 112.356C49.9807 110.457 49.7919 107.537 50.2724 105.464C50.7067 103.591 53.0748 93.5345 53.0748 93.5345C53.0748 93.5345 52.36 92.0968 52.36 89.9713C52.36 86.6341 54.2861 84.1427 56.6844 84.1427C58.7234 84.1427 59.7082 85.68 59.7082 87.5233C59.7082 89.5826 58.4027 92.6612 57.729 95.5143C57.1659 97.903 58.9218 99.8511 61.268 99.8511C65.5156 99.8511 68.7808 95.3533 68.7808 88.8609C68.7808 83.1145 64.6691 79.0969 58.798 79.0969C51.998 79.0969 48.0066 84.2188 48.0066 89.5121C48.0066 91.5749 48.7978 93.7868 49.7852 94.9892C49.9805 95.2268 50.0091 95.435 49.9509 95.6776C49.7695 96.4356 49.3664 98.0657 49.2872 98.3994C49.183 98.8387 48.9408 98.9319 48.4879 98.7202C45.5031 97.325 43.6369 92.9426 43.6369 89.4226C43.6369 81.8519 49.1144 74.8992 59.4279 74.8992C67.7184 74.8992 74.1612 80.8318 74.1612 88.7604C74.1612 97.0317 68.9679 103.688 61.7597 103.688C59.338 103.688 57.0613 102.425 56.282 100.933C56.282 100.933 55.0837 105.515 54.7931 106.638C54.2536 108.722 52.7971 111.335 51.8228 112.93C54.0589 113.625 56.4352 114 58.8989 114C72.0981 114 82.798 103.255 82.798 89.9998C82.798 76.7451 72.0981 65.9999 58.8989 65.9999Z" fill="white"/>
</svg>
