<svg width="270" height="180" viewBox="0 0 270 180" fill="none" xmlns="http://www.w3.org/2000/svg">
<rect width="270" height="180" rx="8" fill="#1A1A1A"/>
<mask id="mask0_19300_218" style="mask-type:alpha" maskUnits="userSpaceOnUse" x="35" y="20" width="200" height="140">
<path d="M35 20H235V160H35V20Z" fill="#FFFFFE"/>
</mask>
<g mask="url(#mask0_19300_218)">
<path fill-rule="evenodd" clip-rule="evenodd" d="M118.044 35.3261C124.5 28.5913 133.485 24.4208 143.412 24.4208C156.647 24.4208 168.118 31.7892 174.294 42.7682C179.777 40.3121 185.715 39.0441 191.721 39.0471C215.544 39.0471 234.882 58.5735 234.882 82.6682C234.882 106.763 215.544 126.289 191.721 126.289C188.809 126.289 185.971 125.996 183.191 125.442C177.787 135.095 167.456 141.652 155.691 141.652C150.901 141.662 146.173 140.573 141.868 138.469C136.39 151.364 123.632 160.427 108.78 160.427C93.2648 160.427 80.1031 150.627 75.0295 136.848C72.7714 137.326 70.4697 137.566 68.1619 137.564C49.706 137.564 34.7795 122.385 34.7795 103.743C34.7795 91.217 41.5001 80.3118 51.4707 74.417C49.3555 69.534 48.2667 64.2666 48.2722 58.9434C48.2722 37.4276 65.6987 20.0381 87.1693 20.0381C99.7428 20.0381 110.993 26.0433 118.052 35.3644" fill="#FFFFFE"/>
<path fill-rule="evenodd" clip-rule="evenodd" d="M63.9266 92.7997C63.8008 93.1283 63.9714 93.1969 64.0119 93.2551C64.3876 93.5277 64.7692 93.7252 65.1516 93.947C67.1957 95.0301 69.1222 95.347 71.1369 95.347C75.2398 95.347 77.7913 93.1585 77.7913 89.6364V89.5672C77.7913 86.3103 74.9089 85.124 72.2178 84.2766L71.8655 84.1624C69.8288 83.5007 68.0714 82.9245 68.0714 81.5835V81.515C68.0714 80.3655 69.1008 79.5181 70.6891 79.5181C72.4538 79.5181 74.5567 80.1069 75.9023 80.8518C75.9023 80.8518 76.3008 81.1097 76.4457 80.7243C76.5244 80.5158 77.2104 78.6759 77.2839 78.4696C77.3619 78.2537 77.2251 78.0909 77.0847 78.0069C75.5405 77.0637 73.4082 76.4226 71.2023 76.4226L70.7928 76.4241C67.0354 76.4241 64.4104 78.701 64.4104 81.9578V82.0278C64.4104 85.4615 67.3075 86.5815 70.0133 87.3552L70.4486 87.4907C72.4192 88.0979 74.1251 88.6255 74.1251 90.0107V90.08C74.1251 91.3547 73.0148 92.3053 71.2354 92.3053C70.5435 92.3053 68.3383 92.2935 65.9486 90.78C65.6597 90.6113 65.495 90.4897 65.2722 90.3534C65.1545 90.2819 64.8604 90.153 64.7325 90.5391L63.9236 92.7938L63.9266 92.7997ZM123.997 92.7938C123.871 93.1224 124.042 93.191 124.084 93.2492C124.458 93.5218 124.841 93.7193 125.224 93.9411C127.268 95.0242 129.194 95.3411 131.209 95.3411C135.312 95.3411 137.863 93.1526 137.863 89.6305V89.5613C137.863 86.3044 134.988 85.1181 132.29 84.2707L131.938 84.1565C129.901 83.4949 128.143 82.9186 128.143 81.5776V81.5091C128.143 80.3596 129.173 79.5122 130.761 79.5122C132.526 79.5122 134.621 80.101 135.974 80.8459C135.974 80.8459 136.373 81.1038 136.518 80.7184C136.596 80.5099 137.283 78.67 137.349 78.4637C137.428 78.2478 137.291 78.085 137.151 78.001C135.607 77.0578 133.474 76.4167 131.268 76.4167L130.858 76.4182C127.101 76.4182 124.476 78.6951 124.476 81.9519V82.0219C124.476 85.4556 127.373 86.5756 130.079 87.3493L130.513 87.4849C132.491 88.092 134.19 88.6196 134.19 90.0049V90.0741C134.19 91.3489 133.08 92.2994 131.3 92.2994C130.607 92.2994 128.396 92.2876 126.013 90.7741C125.724 90.6054 125.555 90.489 125.336 90.3475C125.262 90.3003 124.916 90.1647 124.797 90.5332L123.988 92.7879L123.997 92.7938ZM165.018 85.8911C165.018 87.8805 164.647 89.45 163.922 90.5626C163.199 91.6605 162.106 92.1984 160.584 92.1984C159.062 92.1984 157.974 91.665 157.26 90.57C156.542 89.4647 156.18 87.8879 156.18 85.8984C156.18 83.909 156.544 82.3469 157.26 81.249C157.972 80.1584 159.055 79.6353 160.584 79.6353C162.113 79.6353 163.202 80.1636 163.922 81.249C164.652 82.3469 165.018 83.909 165.018 85.8984V85.8911ZM168.444 82.2069C168.107 81.0647 167.584 80.0626 166.885 79.2226C166.186 78.3826 165.305 77.7047 164.253 77.2184C163.209 76.7284 161.974 76.4816 160.577 76.4816C159.18 76.4816 157.952 76.7299 156.9 77.2184C155.856 77.7077 154.966 78.3826 154.268 79.2226C153.571 80.0626 153.047 81.0647 152.709 82.2069C152.374 83.3416 152.205 84.5795 152.205 85.8984C152.205 87.2174 152.374 88.4553 152.709 89.59C153.045 90.7321 153.569 91.7342 154.268 92.5742C154.967 93.4142 155.856 94.0847 156.9 94.5637C157.952 95.0412 159.187 95.2843 160.577 95.2843C161.966 95.2843 163.202 95.0412 164.246 94.5637C165.29 94.0862 166.18 93.4142 166.878 92.5742C167.576 91.7342 168.099 90.7321 168.437 89.59C168.771 88.4553 168.941 87.2174 168.941 85.8984C168.941 84.5869 168.771 83.3416 168.437 82.2069H168.444ZM196.599 91.6384C196.486 91.3046 196.161 91.4306 196.161 91.4306C195.663 91.6215 195.132 91.7983 194.566 91.8867C193.995 91.9766 193.36 92.0216 192.691 92.0216C191.036 92.0216 189.713 91.5272 188.771 90.5479C187.823 89.5679 187.293 87.9911 187.301 85.8542C187.306 83.909 187.775 82.45 188.617 81.33C189.448 80.2247 190.727 79.65 192.419 79.65C193.83 79.65 194.911 79.8143 196.044 80.1695C196.044 80.1695 196.312 80.2866 196.441 79.9322C196.741 79.0996 196.963 78.5027 197.286 77.5891C197.377 77.3275 197.154 77.217 197.072 77.1853C196.628 77.0114 195.58 76.7262 194.785 76.6061C194.043 76.4926 193.182 76.4337 192.212 76.4337C190.771 76.4337 189.491 76.6805 188.396 77.1698C187.3 77.6583 186.374 78.334 185.638 79.174C184.903 80.014 184.344 81.0161 183.969 82.1582C183.598 83.293 183.41 84.5382 183.41 85.8572C183.41 88.7014 184.175 91.0077 185.69 92.6951C187.205 94.3898 189.484 95.2445 192.455 95.2445C194.212 95.2445 196.013 94.8886 197.307 94.3751C197.307 94.3751 197.555 94.2557 197.447 93.9669L196.602 91.6384H196.599ZM202.594 83.9753C202.758 82.87 203.06 81.949 203.535 81.2342C204.246 80.1437 205.33 79.5469 206.852 79.5469C208.374 79.5469 209.381 80.1466 210.102 81.2342C210.58 81.9526 210.788 82.9069 210.866 83.9753L202.557 83.9738L202.594 83.9753ZM214.138 81.5437C213.846 80.4458 213.124 79.3332 212.653 78.8247C211.903 78.0216 211.175 77.4542 210.447 77.1447C209.396 76.6969 208.266 76.4671 207.124 76.4691C205.675 76.4691 204.359 76.7144 203.293 77.2133C202.227 77.7158 201.33 78.3996 200.624 79.2543C199.919 80.1091 199.388 81.1185 199.05 82.2754C198.712 83.4175 198.541 84.6701 198.541 85.9817C198.541 87.3227 198.718 88.568 199.067 89.6954C199.419 90.8301 199.986 91.8249 200.751 92.6501C201.516 93.4827 202.493 94.1312 203.67 94.588C204.839 95.0412 206.258 95.2762 207.883 95.2711C211.236 95.26 213.001 94.5121 213.721 94.1069C213.85 94.0346 213.971 93.9101 213.82 93.5513L213.063 91.4218C212.946 91.1042 212.626 91.2192 212.626 91.2192C211.795 91.5301 210.618 92.0886 207.861 92.0813C206.06 92.0783 204.729 91.5456 203.891 90.7107C203.038 89.856 202.611 88.6107 202.545 86.8423L214.163 86.8512C214.163 86.8512 214.468 86.8482 214.5 86.5491C214.513 86.4253 214.898 84.1617 214.154 81.5459L214.138 81.5437ZM109.727 83.9753C109.891 82.87 110.193 81.949 110.668 81.2342C111.38 80.1437 112.462 79.5469 113.984 79.5469C115.506 79.5469 116.513 80.1466 117.234 81.2342C117.711 81.9526 117.92 82.9069 117.999 83.9753L109.69 83.9738L109.727 83.9753ZM121.271 81.5437C120.98 80.4458 120.256 79.3332 119.785 78.8247C119.035 78.0216 118.307 77.4542 117.58 77.1447C116.529 76.6969 115.398 76.4671 114.256 76.4691C112.807 76.4691 111.491 76.7144 110.425 77.2133C109.359 77.7158 108.462 78.3996 107.756 79.2543C107.052 80.1091 106.521 81.1185 106.182 82.2754C105.845 83.4175 105.675 84.6701 105.675 85.9817C105.675 87.3227 105.851 88.568 106.202 89.6954C106.553 90.8301 107.121 91.8249 107.878 92.6501C108.643 93.4827 109.621 94.1312 110.797 94.588C111.966 95.0412 113.378 95.2762 115.01 95.2711C118.363 95.26 120.128 94.5121 120.849 94.1069C120.977 94.0346 121.099 93.9101 120.946 93.5513L120.189 91.4218C120.072 91.1042 119.752 91.2192 119.752 91.2192C118.921 91.5301 117.744 92.0886 114.987 92.0813C113.193 92.0783 111.855 91.5456 111.016 90.7107C110.163 89.856 109.737 88.6107 109.671 86.8423L121.288 86.8512C121.288 86.8512 121.594 86.8482 121.626 86.5491C121.638 86.4253 122.024 84.1617 121.279 81.5459L121.271 81.5437ZM84.653 91.5647C84.1979 91.2007 84.1347 91.1116 83.9839 90.8751C83.7538 90.5192 83.6361 90.013 83.6361 89.3645C83.6361 88.3477 83.9744 87.6109 84.6729 87.1172C84.6655 87.1186 85.6729 86.2477 88.0406 86.2772C89.0944 86.2961 90.1458 86.3859 91.1876 86.5461V91.8293H91.1891C91.1891 91.8293 89.7185 92.1469 88.0567 92.2471C85.6964 92.3893 84.6523 91.5662 84.6597 91.5684L84.653 91.5647ZM89.2707 83.3858C88.8001 83.3512 88.1898 83.3342 87.4619 83.3342C86.4692 83.3342 85.506 83.458 84.6089 83.7012C83.7045 83.9458 82.8883 84.3245 82.1898 84.8285C81.4894 85.3293 80.9132 85.9848 80.506 86.7443C80.095 87.5106 79.8854 88.4096 79.8854 89.4264C79.8854 90.458 80.0641 91.3496 80.417 92.0791C80.7629 92.8026 81.2835 93.4282 81.9317 93.8991C82.5766 94.3692 83.3729 94.717 84.292 94.9233C85.2038 95.1318 86.2332 95.2372 87.3656 95.2372C88.5567 95.2372 89.7406 95.137 90.8876 94.9432C91.8646 94.7743 92.8378 94.5847 93.8067 94.3743C94.1935 94.2852 94.6229 94.168 94.6229 94.168C94.9097 94.0951 94.8876 93.7878 94.8876 93.7878L94.881 83.1773C94.881 80.8489 94.2604 79.1173 93.0354 78.0489C91.8148 76.9804 90.0281 76.4425 87.7119 76.4425C86.8442 76.4425 85.4398 76.5604 84.6016 76.7292C84.6016 76.7292 82.0722 77.2214 81.0281 78.0407C81.0281 78.0407 80.7986 78.1822 80.9236 78.5027L81.7472 80.7133C81.8494 80.9999 82.128 80.9019 82.128 80.9019C82.128 80.9019 82.2156 80.8673 82.3185 80.8061C84.5464 79.5903 87.37 79.6272 87.37 79.6272C88.62 79.6272 89.5905 79.8814 90.2376 80.3787C90.8707 80.8658 91.1935 81.6019 91.1935 83.1493V83.6407C90.2008 83.4963 89.2817 83.4131 89.2817 83.4131L89.2707 83.3858ZM182.653 77.3953C182.67 77.3564 182.679 77.3146 182.679 77.2723C182.679 77.23 182.671 77.188 182.655 77.149C182.638 77.1099 182.614 77.0745 182.584 77.045C182.554 77.0154 182.518 76.9922 182.479 76.9767C182.281 76.9016 181.295 76.6931 180.538 76.6459C179.082 76.5545 178.273 76.8006 177.545 77.1278C176.826 77.4527 176.03 77.9752 175.589 78.5794L175.588 77.1646C175.588 76.9701 175.45 76.8132 175.255 76.8132H172.284C172.091 76.8132 171.952 76.9701 171.952 77.1646V94.4804C171.952 94.574 171.989 94.6636 172.055 94.7298C172.121 94.7959 172.21 94.8332 172.304 94.8334H175.348C175.441 94.8332 175.531 94.7959 175.596 94.7297C175.662 94.6636 175.699 94.5739 175.699 94.4804V85.7857C175.699 84.6215 175.827 83.4646 176.082 82.7352C176.334 82.0138 176.676 81.4383 177.097 81.0257C177.499 80.6272 177.991 80.3315 178.531 80.1636C179.038 80.0178 179.563 79.9439 180.09 79.944C180.696 79.944 181.362 80.1002 181.362 80.1002C181.585 80.1253 181.71 79.9882 181.785 79.7863C181.985 79.2551 182.55 77.6642 182.66 77.3474" fill="black"/>
<path fill-rule="evenodd" clip-rule="evenodd" d="M154.221 69.404C153.845 69.2901 153.462 69.199 153.075 69.1314C152.554 69.0443 152.027 69.0033 151.499 69.0091C149.401 69.0091 147.747 69.603 146.586 70.776C145.433 71.9402 144.649 73.7138 144.255 76.0474L144.113 76.8351H141.48C141.48 76.8351 141.159 76.8218 141.091 77.1733L140.659 79.5901C140.629 79.8215 140.728 79.9659 141.037 79.9644H143.6L140.999 94.5119C140.796 95.6835 140.563 96.6473 140.305 97.3775C140.05 98.0981 139.802 98.6382 139.496 99.0302C139.199 99.4097 138.918 99.689 138.434 99.8518C138.034 99.9867 137.574 100.049 137.069 100.049C136.788 100.049 136.415 100.001 136.139 99.9461C135.863 99.8916 135.72 99.8297 135.513 99.7428C135.513 99.7428 135.213 99.6278 135.094 99.9299C134.998 100.177 134.315 102.059 134.234 102.292C134.152 102.522 134.267 102.703 134.413 102.756C134.754 102.878 135.007 102.956 135.472 103.066C136.118 103.218 136.662 103.228 137.171 103.228C138.239 103.228 139.212 103.078 140.018 102.786C140.83 102.492 141.537 101.98 142.162 101.286C142.838 100.539 143.263 99.7553 143.669 98.6869C144.071 97.628 144.414 96.3135 144.688 94.7816L147.302 79.9644H151.122C151.122 79.9644 151.444 79.9762 151.511 79.6262L151.943 77.2094C151.974 76.978 151.875 76.8336 151.565 76.8351H147.857C147.875 76.7511 148.043 75.4439 148.469 74.2134C148.651 73.688 148.993 73.2643 149.282 72.9733C149.553 72.6961 149.886 72.4883 150.254 72.3676C150.657 72.2427 151.077 72.1821 151.499 72.1878C151.848 72.1878 152.191 72.2298 152.452 72.2843C152.811 72.361 152.951 72.4015 153.045 72.4295C153.423 72.5452 153.474 72.4332 153.548 72.2497L154.435 69.8093C154.526 69.547 154.304 69.4364 154.221 69.404ZM102.402 94.5429C102.402 94.7374 102.264 94.8958 102.07 94.8958H98.9942C98.7994 94.8958 98.6611 94.7374 98.6611 94.5429V69.7349C98.6611 69.5411 98.7994 69.3841 98.9942 69.3841H102.07C102.264 69.3841 102.402 69.5411 102.402 69.7349V94.5429Z" fill="black"/>
</g>
</svg>
